<?xml version="1.0" encoding="utf-8"?>
<!-- Generator: Adobe Illustrator 28.0.0, SVG Export Plug-In . SVG Version: 6.00 Build 0)  -->
<svg version="1.1" id="图层_1" xmlns="http://www.w3.org/2000/svg" xmlns:xlink="http://www.w3.org/1999/xlink" x="0px" y="0px"
	 viewBox="0 0 40 40" style="enable-background:new 0 0 40 40;" xml:space="preserve">
<style type="text/css">
	.st0{fill:#FAAE29;}
	.st1{fill:#4680FF;}
</style>
<g>
	<path id="路径_2087" class="st0" d="M27.2,16.3c-2.2,0-4.2,0.9-5.7,2.5c2.3-1.5,5.3-0.8,6.8,1.4c0.2,0.3,0.4,0.7,0.5,1
		c0.1,0.5,0.2,0.9,0.2,1.2c0.6,3.9-1.8,7.6-5.6,8.7c3.8,2.1,8.6,0.7,10.7-3.1s0.7-8.6-3.1-10.7C29.8,16.6,28.5,16.3,27.2,16.3"/>
	<path id="联合_16" class="st1" d="M12.6,32h-0.2c-4.3-0.3-7.6-4-7.4-8.4c0.2-3.9,3.3-7,7.1-7.3c0-0.1,0-0.2,0-0.4
		c0-4.3,3.5-7.9,7.9-7.9c4.1,0,7.6,3.2,7.9,7.3c-3-3.1-7.9-3.3-11.1-0.4c-0.5,0.5-1,1.1-1.4,1.7l0,0c-0.7,1.2-1.1,2.6-1.1,4
		c0,0.1,0,0.3,0,0.4s0,0.2,0,0.4c0.2,2.1,1.9,3.9,4,4.2c0.3,0,0.5,0.1,0.8,0.1c0.2,0,0.4,0,0.7,0c0.3,0,0.9-0.1,0.9-0.1
		c1.2-0.3,2.4-0.8,3.4-1.6c0.1-0.1,0.2-0.2,0.3-0.3c1.2-1.2,1.2-3,0-4.2c-0.6-0.5-1.4-0.9-2.2-0.9c-0.1,0-0.2,0-0.3,0
		c0.2,0,0.5-0.1,0.7-0.1c1.5,0,2.9,0.7,3.8,1.9c1.4,1.7,1.4,4.2,0.1,5.9c-0.1,0.2-0.5,0.6-0.7,0.8c-0.4,0.4-0.6,0.5-1,0.9
		c-3.2,2.6-6.4,3.8-10.9,3.9C13.6,31.9,13,32,12.6,32z"/>
</g>
</svg>
